<svg width="183" height="69" viewBox="0 0 183 69" fill="none" xmlns="http://www.w3.org/2000/svg">
<g clip-path="url(#clip0_85_2870)">
<path d="M30.9805 31.1151C32.8463 31.1151 33.3935 30.4476 33.3935 27.7154V14.3027C33.3935 11.5705 32.8463 10.903 30.9805 10.903V10.7012H41.4742C47.5066 10.7012 49.6671 13.5731 49.6671 16.8021C49.6671 20.0311 47.4926 22.8098 41.4742 22.8098H39.6644V22.608H40.2396C43.4382 22.608 44.0976 19.3325 44.0976 16.8021C44.0976 14.2717 43.4382 10.934 40.2396 10.934H38.6122V27.7154C38.6122 30.4476 39.1594 31.1151 41.0252 31.1151V31.317H30.9945V31.1151H30.9805Z" fill="#3D3D3D"/>
<path d="M50.998 31.1151C52.8639 31.1151 53.411 30.4476 53.411 27.7154V14.3027C53.411 11.5705 52.8639 10.903 50.998 10.903V10.7012H61.0288V10.903C59.1629 10.903 58.6158 11.5705 58.6158 14.3027V27.7154C58.6158 30.4476 59.1629 31.1151 61.0288 31.1151V31.317H50.998V31.1151Z" fill="#3D3D3D"/>
<path d="M63.2757 31.1151C65.1416 31.1151 65.6887 30.4476 65.6887 27.7154V14.3027C65.6887 11.5705 65.1416 10.903 63.2757 10.903V10.7012H79.9141L80.3631 17.7335L80.2368 17.7646C79.4512 13.9301 77.2206 10.934 73.068 10.934H70.8935V20.9004H71.8334C75.004 20.9004 76.5612 18.37 77.1364 15.8241H77.2627V26.132H77.1364C76.5612 23.6326 74.99 21.1333 71.8334 21.1333H70.8935V31.0686H73.2083C77.6414 31.0686 79.5634 27.2031 80.5034 23.7257L80.6296 23.7568L80.0544 31.3014H63.2617V31.0996L63.2757 31.1151Z" fill="#3D3D3D"/>
<path d="M82.8555 31.1151C84.7213 31.1151 85.2685 30.4476 85.2685 27.7154V14.3027C85.2685 11.5705 84.7213 10.903 82.8555 10.903V10.7012H93.4053C100.364 10.7012 104.53 14.6443 104.53 21.0091C104.53 27.3739 100.378 31.317 93.4053 31.317H82.8555V31.1151ZM92.6197 31.0841C97.4737 31.0841 98.9467 25.9146 98.9467 21.0091C98.9467 16.1035 97.4737 10.934 92.6477 10.934H90.4732V31.0841H92.6197Z" fill="#3D3D3D"/>
<path d="M106.282 31.1151C108.147 31.1151 108.695 30.4476 108.695 27.7154V14.3027C108.695 11.5705 108.147 10.903 106.282 10.903V10.7012H116.916C122.948 10.7012 125.319 12.9677 125.319 16.1966C125.319 20.6365 120.83 21.273 117.308 21.4282V21.5679C124.632 21.599 123.664 23.3066 125.052 28.2122C125.628 30.2769 126.133 31.1151 127.942 31.1151V31.317H120.619C120.1 30.3545 119.806 29.0505 119.469 27.4515C118.445 22.5149 118.473 21.6145 115.457 21.6145H113.885V27.7154C113.885 30.4476 114.432 31.1151 116.298 31.1151V31.317H106.268V31.1151H106.282ZM116.074 21.4127C119.062 21.4127 119.96 18.6805 119.96 16.2122C119.96 13.7439 119.02 10.9496 115.835 10.9496H113.913V21.4282H116.088L116.074 21.4127Z" fill="#3D3D3D"/>
<path d="M128.773 31.1158C131.79 31.1158 133.108 27.685 134.595 23.9748L139.997 10.5H140.207L147.404 26.8157C148.274 28.8182 149.508 31.1158 151.29 31.1158V31.3176H139.955V31.1158C142.185 31.1158 142.424 28.9424 141.526 26.8157L140.628 24.6734H134.666L134.483 25.1391C133.403 28.5388 134.118 31.1158 137.443 31.1158V31.3176H128.787V31.1158H128.773ZM140.474 24.3473L137.556 17.4702L134.82 24.3473H140.488H140.474Z" fill="#3D3D3D"/>
<path d="M20.8076 57.6308L20.541 51.2971L20.6953 51.266C22.1684 55.3954 24.0062 58.2673 27.5415 58.2673C30.1649 58.2673 31.4556 56.6683 31.4556 54.7279C31.4556 49.0927 20.7234 50.9245 20.7234 43.0849C20.7234 39.1884 23.3468 37.0771 27.9904 37.0771C30.5858 37.0771 32.1149 37.7447 34.2614 37.1703L34.556 44.0008L34.4297 44.0319C33.0128 40.2285 31.5398 37.2634 28.1868 37.2634C25.8019 37.2634 24.7217 38.8003 24.7217 40.4924C24.7217 45.8016 35.51 44.2647 35.51 52.0733C35.51 56.3113 32.3113 58.4691 27.6116 58.4691C25.5073 58.4691 22.6734 58.0345 20.7935 57.5998L20.8076 57.6308Z" fill="#3D3D3D"/>
<path d="M35.0449 57.8941C38.0612 57.8941 39.3799 54.4633 40.867 50.7531L46.2681 37.2783H46.4786L53.6754 53.594C54.5452 55.5966 55.7798 57.8941 57.5615 57.8941V58.0959H46.226V57.8941C48.4566 57.8941 48.6951 55.7208 47.7973 53.594L46.8994 51.4517H40.9371L40.7547 51.9174C39.6745 55.3171 40.39 57.8941 43.7148 57.8941V58.0959H35.059V57.8941H35.0449ZM46.7451 51.1257L43.8271 44.2486L41.0774 51.1257H46.7451Z" fill="#3D3D3D"/>
<path d="M55.0254 48.1269C55.0254 40.9859 60.4546 37.0894 66.3889 37.0894C68.886 37.0894 71.8181 37.7879 74.0487 37.1515L74.5958 44.0906L74.4415 44.1217C72.8422 39.0919 69.5875 37.3222 66.936 37.3222C62.3485 37.3222 60.637 42.5538 60.637 48.189C60.637 53.2187 62.0259 58.295 66.6695 58.295C67.876 58.295 69.0824 57.969 70.2609 57.3636V51.9302C70.2609 49.198 69.6296 48.2976 67.6375 48.2976V48.0958H77.6682V48.2976C75.8023 48.2976 75.2552 48.9652 75.2552 51.6974V57.0687C73.1789 57.7051 69.826 58.4969 66.5432 58.4969C58.8553 58.4969 55.0254 54.0881 55.0254 48.1269Z" fill="#3D3D3D"/>
<path d="M78.5414 57.8935C80.4072 57.8935 80.9544 57.2259 80.9544 54.4937V41.081C80.9544 38.3488 80.4072 37.6813 78.5414 37.6813V37.4795H89.1753C95.2078 37.4795 97.5787 39.746 97.5787 42.975C97.5787 47.4148 93.0894 48.0513 89.5682 48.2065V48.3462C96.8913 48.3773 95.9233 50.0849 97.3122 54.9905C97.8874 57.0552 98.3924 57.8935 100.202 57.8935V58.0953H92.879C92.3599 57.1328 92.0653 55.8288 91.7286 54.2298C90.7045 49.2932 90.7326 48.3928 87.7163 48.3928H86.1451V54.4937C86.1451 57.2259 86.6922 57.8935 88.5581 57.8935V58.0953H78.5273V57.8935H78.5414ZM88.3336 48.191C91.3218 48.191 92.2196 45.4588 92.2196 42.9905C92.2196 40.5222 91.2797 37.7279 88.0951 37.7279H86.1731V48.2065H88.3476L88.3336 48.191Z" fill="#3D3D3D"/>
<path d="M98.6113 57.8941C101.628 57.8941 102.946 54.4633 104.433 50.7531L109.835 37.2783H110.045L117.242 53.594C118.112 55.5966 119.346 57.8941 121.128 57.8941V58.0959H109.792V57.8941C112.023 57.8941 112.262 55.7208 111.364 53.594L110.466 51.4517H104.504L104.321 51.9174C103.241 55.3171 103.956 57.8941 107.281 57.8941V58.0959H98.6254V57.8941H98.6113ZM110.312 51.1257L107.393 44.2486L104.644 51.1257H110.312Z" fill="#3D3D3D"/>
<path d="M121.127 57.8935C122.993 57.8935 123.54 57.2259 123.54 54.4937V41.081C123.54 38.3488 122.993 37.6813 121.127 37.6813V37.4795H131.677C138.635 37.4795 142.802 41.4226 142.802 47.7874C142.802 54.1522 138.649 58.0953 131.677 58.0953H121.127V57.8935ZM130.891 57.8624C135.745 57.8624 137.218 52.693 137.218 47.7874C137.218 42.8818 135.745 37.7124 130.919 37.7124H128.745V57.8624H130.891Z" fill="#3D3D3D"/>
<path d="M139.945 57.8941C142.962 57.8941 144.28 54.4633 145.767 50.7531L151.169 37.2783H151.379L158.576 53.594C159.446 55.5966 160.68 57.8941 162.462 57.8941V58.0959H151.126V57.8941C153.357 57.8941 153.596 55.7208 152.698 53.594L151.8 51.4517H145.837L145.655 51.9174C144.575 55.3171 145.29 57.8941 148.615 57.8941V58.0959H139.959V57.8941H139.945ZM151.645 51.1257L148.727 44.2486L145.978 51.1257H151.645Z" fill="#3D3D3D"/>
</g>
<defs>
<clipPath id="clip0_85_2870">
<rect width="141.917" height="48" fill="white" transform="translate(20.541 10.5)"/>
</clipPath>
</defs>
</svg>
