<svg width="166" height="52" viewBox="0 0 166 52" fill="none" xmlns="http://www.w3.org/2000/svg">
<g clip-path="url(#clip0_141_779)">
<path d="M12.2087 22.4047C14.3912 22.4047 15.0312 21.6954 15.0312 18.7925V4.54149C15.0312 1.63852 14.3912 0.929268 12.2087 0.929268V0.714844H24.4832C31.5393 0.714844 34.0664 3.76627 34.0664 7.19706C34.0664 10.6278 31.5229 13.5803 24.4832 13.5803H22.3663V13.3659H23.0391C26.7805 13.3659 27.5518 9.88561 27.5518 7.19706C27.5518 4.5085 26.7805 0.962256 23.0391 0.962256H21.1356V18.7925C21.1356 21.6954 21.7756 22.4047 23.958 22.4047V22.6191H12.2251V22.4047H12.2087Z" fill="black"/>
<path d="M35.6252 22.4047C37.8077 22.4047 38.4477 21.6954 38.4477 18.7925V4.54149C38.4477 1.63852 37.8077 0.929268 35.6252 0.929268V0.714844H47.3581V0.929268C45.1757 0.929268 44.5357 1.63852 44.5357 4.54149V18.7925C44.5357 21.6954 45.1757 22.4047 47.3581 22.4047V22.6191H35.6252V22.4047Z" fill="black"/>
<path d="M49.9837 22.4047C52.1662 22.4047 52.8062 21.6954 52.8062 18.7925V4.54149C52.8062 1.63852 52.1662 0.929268 49.9837 0.929268V0.714844H69.4455L69.9706 8.18671L69.823 8.2197C68.904 4.14563 66.2949 0.962256 61.4376 0.962256H58.8941V11.5515H59.9936C63.7022 11.5515 65.5236 8.86297 66.1964 6.15792H66.3441V17.1101H66.1964C65.5236 14.4545 63.6858 11.7989 59.9936 11.7989H58.8941V22.3552H61.6017C66.7872 22.3552 69.0353 18.2482 70.1347 14.5535L70.2824 14.5864L69.6096 22.6026H49.9673V22.3882L49.9837 22.4047Z" fill="black"/>
<path d="M72.8916 22.4047C75.0741 22.4047 75.7141 21.6954 75.7141 18.7925V4.54149C75.7141 1.63852 75.0741 0.929268 72.8916 0.929268V0.714844H85.2317C93.3708 0.714844 98.2445 4.90437 98.2445 11.667C98.2445 18.4296 93.3873 22.6191 85.2317 22.6191H72.8916V22.4047ZM84.3127 22.3717C89.9905 22.3717 91.7135 16.8791 91.7135 11.667C91.7135 6.45482 89.9905 0.962256 84.3455 0.962256H81.802V22.3717H84.3127Z" fill="black"/>
<path d="M100.296 22.4047C102.478 22.4047 103.118 21.6954 103.118 18.7925V4.54149C103.118 1.63852 102.478 0.929268 100.296 0.929268V0.714844H112.734C119.79 0.714844 122.564 3.12299 122.564 6.55378C122.564 11.2711 117.313 11.9474 113.194 12.1123V12.2608C121.76 12.2938 120.627 14.1081 122.252 19.3203C122.925 21.514 123.515 22.4047 125.632 22.4047V22.6191H117.066C116.459 21.5965 116.115 20.211 115.721 18.5121C114.523 13.2669 114.556 12.3103 111.028 12.3103H109.19V18.7925C109.19 21.6954 109.83 22.4047 112.012 22.4047V22.6191H100.279V22.4047H100.296ZM111.75 12.0958C115.245 12.0958 116.295 9.19285 116.295 6.57028C116.295 3.9477 115.196 0.978751 111.471 0.978751H109.223V12.1123H111.766L111.75 12.0958Z" fill="black"/>
<path d="M126.6 22.4043C130.128 22.4043 131.671 18.7591 133.41 14.8169L139.728 0.5H139.974L148.392 17.8354C149.41 19.9631 150.854 22.4043 152.938 22.4043V22.6187H139.679V22.4043C142.288 22.4043 142.567 20.0951 141.517 17.8354L140.466 15.5592H133.492L133.279 16.054C132.016 19.6662 132.852 22.4043 136.742 22.4043V22.6187H126.617V22.4043H126.6ZM140.286 15.2128L136.873 7.90589L133.673 15.2128H140.302H140.286Z" fill="black"/>
<path d="M0.311783 50.5766L0 43.8469L0.180506 43.814C1.90352 48.2014 4.05318 51.2528 8.18841 51.2528C11.257 51.2528 12.7667 49.5539 12.7667 47.4922C12.7667 41.5048 0.213325 43.4511 0.213325 35.1215C0.213325 30.9815 3.28193 28.7383 8.71352 28.7383C11.7493 28.7383 13.538 29.4475 16.0486 28.8372L16.3932 36.0947L16.2456 36.1277C14.5882 32.0866 12.8652 28.9362 8.94326 28.9362C6.15362 28.9362 4.89008 30.5691 4.89008 32.367C4.89008 38.008 17.5091 36.3751 17.5091 44.6717C17.5091 49.1746 13.7677 51.4673 8.27046 51.4673C5.80902 51.4673 2.49427 51.0054 0.295374 50.5436L0.311783 50.5766Z" fill="black"/>
<path d="M16.9675 50.8564C20.4956 50.8564 22.0381 47.2112 23.7775 43.2691L30.0952 28.9521H30.3414L38.7595 46.2875C39.7769 48.4153 41.221 50.8564 43.305 50.8564V51.0708H30.046V50.8564C32.6552 50.8564 32.9341 48.5472 31.8839 46.2875L30.8337 44.0113H23.8596L23.6463 44.5062C22.3827 48.1184 23.2196 50.8564 27.1087 50.8564V51.0708H16.9839V50.8564H16.9675ZM30.6532 43.665L27.24 36.358L24.0237 43.665H30.6532Z" fill="black"/>
<path d="M40.335 40.4822C40.335 32.8949 46.6855 28.7549 53.6268 28.7549C56.5477 28.7549 59.9773 29.4971 62.5864 28.8209L63.2264 36.1938L63.0459 36.2267C61.1752 30.8826 57.3682 29.0023 54.2668 29.0023C48.9008 29.0023 46.8988 34.5608 46.8988 40.5482C46.8988 45.8923 48.5234 51.2859 53.955 51.2859C55.3662 51.2859 56.7774 50.9396 58.1558 50.2963V44.5233C58.1558 41.6203 57.4174 40.6637 55.0872 40.6637V40.4493H66.8201V40.6637C64.6377 40.6637 63.9977 41.3729 63.9977 44.2759V49.9829C61.569 50.6592 57.6471 51.5004 53.8073 51.5004C44.8148 51.5004 40.335 46.816 40.335 40.4822Z" fill="black"/>
<path d="M67.8375 50.8568C70.0199 50.8568 70.6599 50.1476 70.6599 47.2446V32.9936C70.6599 30.0907 70.0199 29.3814 67.8375 29.3814V29.167H80.276C87.3321 29.167 90.1053 31.5751 90.1053 35.0059C90.1053 39.7233 84.8543 40.3995 80.7354 40.5645V40.7129C89.3013 40.7459 88.169 42.5603 89.7936 47.7724C90.4664 49.9662 91.0571 50.8568 93.1739 50.8568V51.0713H84.6081C84.001 50.0486 83.6564 48.6631 83.2625 46.9642C82.0646 41.7191 82.0974 40.7624 78.5694 40.7624H76.7315V47.2446C76.7315 50.1476 77.3715 50.8568 79.5539 50.8568V51.0713H67.821V50.8568H67.8375ZM79.2914 40.548C82.7866 40.548 83.8369 37.645 83.8369 35.0224C83.8369 32.3999 82.7374 29.4309 79.0124 29.4309H76.7643V40.5645H79.3078L79.2914 40.548Z" fill="black"/>
<path d="M91.3196 50.8564C94.8477 50.8564 96.3902 47.2112 98.1296 43.2691L104.447 28.9521H104.693L113.112 46.2875C114.129 48.4153 115.573 50.8564 117.657 50.8564V51.0708H104.398V50.8564C107.007 50.8564 107.286 48.5472 106.236 46.2875L105.186 44.0113H98.2116L97.9983 44.5062C96.7348 48.1184 97.5717 50.8564 101.461 50.8564V51.0708H91.336V50.8564H91.3196ZM105.005 43.665L101.592 36.358L98.3757 43.665H105.005Z" fill="black"/>
<path d="M117.657 50.8568C119.84 50.8568 120.48 50.1476 120.48 47.2446V32.9936C120.48 30.0907 119.84 29.3814 117.657 29.3814V29.167H129.997C138.136 29.167 143.01 33.3565 143.01 40.1191C143.01 46.8817 138.153 51.0713 129.997 51.0713H117.657V50.8568ZM129.078 50.8239C134.756 50.8239 136.479 45.3313 136.479 40.1191C136.479 34.907 134.756 29.4144 129.111 29.4144H126.568V50.8239H129.078Z" fill="black"/>
<path d="M139.663 50.8564C143.191 50.8564 144.733 47.2112 146.473 43.2691L152.79 28.9521H153.036L161.455 46.2875C162.472 48.4153 163.916 50.8564 166 50.8564V51.0708H152.741V50.8564C155.35 50.8564 155.629 48.5472 154.579 46.2875L153.529 44.0113H146.555L146.341 44.5062C145.078 48.1184 145.915 50.8564 149.804 50.8564V51.0708H139.679V50.8564H139.663ZM153.348 43.665L149.935 36.358L146.719 43.665H153.348Z" fill="black"/>
</g>
<defs>
<clipPath id="clip0_141_779">
<rect width="166" height="51" fill="white" transform="translate(0 0.5)"/>
</clipPath>
</defs>
</svg>
