{
	"asset":{
		"generator":"Khronos glTF Blender I/O v4.0.44",
		"version":"2.0"
	},
	"scene":0,
	"scenes":[
		{
			"name":"Scene",
			"nodes":[
				0
			]
		}
	],
	"nodes":[
		{
			"mesh":0,
			"name":"Bottel_LP",
			"translation":[
				-3.809340705629438e-05,
				0.19809642434120178,
				4.135182280151639e-06
			]
		}
	],
	"materials":[
		{
			"alphaMode":"BLEND",
			"doubleSided":true,
			"name":"Material.002",
			"normalTexture":{
				"index":0
			},
			"pbrMetallicRoughness":{
				"baseColorTexture":{
					"index":1
				},
				"metallicRoughnessTexture":{
					"index":2
				}
			}
		}
	],
	"meshes":[
		{
			"name":"Bottel_LP",
			"primitives":[
				{
					"attributes":{
						"POSITION":0,
						"NORMAL":1,
						"TEXCOORD_0":2
					},
					"indices":3,
					"material":0
				}
			]
		}
	],
	"textures":[
		{
			"sampler":0,
			"source":0
		},
		{
			"sampler":0,
			"source":1
		},
		{
			"sampler":0,
			"source":2
		}
	],
	"images":[
		{
			"mimeType":"image/png",
			"name":"model with uv_for baking_blend_DefaultMaterial_Normal",
			"uri":"model%20with%20uv_for%20baking_blend_DefaultMaterial_Normal.png"
		},
		{
			"mimeType":"image/png",
			"name":"model with uv_for baking_blend_DefaultMaterial_BaseColor-model with uv_for baking_blend_DefaultMaterial_Opacity",
			"uri":"model%20with%20uv_for%20baking_blend_DefaultMaterial_BaseColor-model%20with%20uv_for%20baking_blend_DefaultMaterial_Opacity.png"
		},
		{
			"mimeType":"image/png",
			"name":"model with uv_for baking_blend_DefaultMaterial_Metallic-model with uv_for baking_blend_DefaultMaterial_Roughness",
			"uri":"model%20with%20uv_for%20baking_blend_DefaultMaterial_Metallic-model%20with%20uv_for%20baking_blend_DefaultMaterial_Roughness.png"
		}
	],
	"accessors":[
		{
			"bufferView":0,
			"componentType":5126,
			"count":5568,
			"max":[
				0.04696798324584961,
				0.13869279623031616,
				0.047278013080358505
			],
			"min":[
				-0.04696797579526901,
				-0.20032119750976562,
				-0.04698127135634422
			],
			"type":"VEC3"
		},
		{
			"bufferView":1,
			"componentType":5126,
			"count":5568,
			"type":"VEC3"
		},
		{
			"bufferView":2,
			"componentType":5126,
			"count":5568,
			"type":"VEC2"
		},
		{
			"bufferView":3,
			"componentType":5123,
			"count":18264,
			"type":"SCALAR"
		}
	],
	"bufferViews":[
		{
			"buffer":0,
			"byteLength":66816,
			"byteOffset":0,
			"target":34962
		},
		{
			"buffer":0,
			"byteLength":66816,
			"byteOffset":66816,
			"target":34962
		},
		{
			"buffer":0,
			"byteLength":44544,
			"byteOffset":133632,
			"target":34962
		},
		{
			"buffer":0,
			"byteLength":36528,
			"byteOffset":178176,
			"target":34963
		}
	],
	"samplers":[
		{
			"magFilter":9729,
			"minFilter":9987
		}
	],
	"buffers":[
		{
			"byteLength":214704,
			"uri":"scene-2-1.bin"
		}
	]
}
